<svg t="1610509534694" class="icon" viewBox="0 0 1024 1024" version="1.1" xmlns="http://www.w3.org/2000/svg" p-id="2556" width="16" height="16"><path d="M800 64a160 160 0 0 1 159.68 149.504L960 224v192a32 32 0 0 1-63.488 5.76L896 416v-192a96 96 0 0 0-86.784-95.552L800 128h-576a96 96 0 0 0-95.552 86.784L128 224v576a96 96 0 0 0 86.784 95.552L224 896h128a32 32 0 0 1 5.76 63.488L352 960h-128a160 160 0 0 1-159.68-149.504L64 800v-576a160 160 0 0 1 149.504-159.68L224 64h576zM564.48 537.408a32 32 0 0 1 4.096 4.096l91.712 110.016a32 32 0 0 1-24.64 52.48H576v224a32 32 0 1 1-64 0V704h-59.648a32 32 0 0 1-24.64-52.48l91.712-110.08a32 32 0 0 1 45.056-4.032z m320 0a32 32 0 0 1 4.096 4.096l91.712 110.016a32 32 0 0 1-24.64 52.48H896v224a32 32 0 1 1-64 0V704h-59.648a32 32 0 0 1-24.64-52.48l91.712-110.08a32 32 0 0 1 45.056-4.032z" p-id="2557" fill="#2c2c2c"></path></svg>